<?xml version="1.0" encoding="UTF-8"?>
<svg width="20px" height="20px" viewBox="0 0 20 20" version="1.1" xmlns="http://www.w3.org/2000/svg" xmlns:xlink="http://www.w3.org/1999/xlink">
    <!-- Generator: Sketch 59.1 (86144) - https://sketch.com -->
    <title>icons/small/edit</title>
    <desc>Created with Sketch.</desc>
    <g id="icons/small/edit" stroke="none" stroke-width="1" fill="none" fill-rule="evenodd">
        <path d="M13.799,2 L11.798,4 L5,4 C4.48716416,4 4.06449284,4.38604019 4.00672773,4.88337887 L4,5 L4,15 C4,15.5128358 4.38604019,15.9355072 4.88337887,15.9932723 L5,16 L15,16 C15.5128358,16 15.9355072,15.6139598 15.9932723,15.1166211 L16,15 L16,8.284 L18,6.284 L18,16 C18,17.1045695 17.1045695,18 16,18 L4,18 C2.8954305,18 2,17.1045695 2,16 L2,4 C2,2.8954305 2.8954305,2 4,2 L13.799,2 Z M8.75735931,9.82842712 L10.1715729,11.2426407 L8.05025253,13.363961 C7.65972824,13.7544853 7.02656326,13.7544853 6.63603897,13.363961 C6.24551468,12.9734367 6.24551468,12.3402718 6.63603897,11.9497475 L8.75735931,9.82842712 Z M19.363961,0.636038969 C19.7544853,1.02656326 19.7544853,1.65972824 19.363961,2.05025253 L11.5857864,9.82842712 L10.1715729,8.41421356 L17.9497475,0.636038969 C18.3402718,0.245514678 18.9734367,0.245514678 19.363961,0.636038969 Z" id="Combined-Shape" fill="#A7A7A7"></path>
    </g>
</svg>