<?xml version="1.0" encoding="UTF-8"?>
<svg width="20px" height="20px" viewBox="0 0 20 20" version="1.1" xmlns="http://www.w3.org/2000/svg" xmlns:xlink="http://www.w3.org/1999/xlink">
    <!-- Generator: Sketch 59.1 (86144) - https://sketch.com -->
    <title>icons/small/remove</title>
    <desc>Created with Sketch.</desc>
    <g id="icons/small/remove" stroke="none" stroke-width="1" fill="none" fill-rule="evenodd">
        <path d="M3.70710678,2.29289322 L10.071,8.656 L16.4350288,2.29289322 C16.8255531,1.90236893 17.4587181,1.90236893 17.8492424,2.29289322 C18.2397667,2.68341751 18.2397667,3.31658249 17.8492424,3.70710678 L11.485,10.071 L17.8492424,16.4350288 C18.2397667,16.8255531 18.2397667,17.4587181 17.8492424,17.8492424 C17.4587181,18.2397667 16.8255531,18.2397667 16.4350288,17.8492424 L10.071,11.485 L3.70710678,17.8492424 C3.31658249,18.2397667 2.68341751,18.2397667 2.29289322,17.8492424 C1.90236893,17.4587181 1.90236893,16.8255531 2.29289322,16.4350288 L8.656,10.071 L2.29289322,3.70710678 C1.90236893,3.31658249 1.90236893,2.68341751 2.29289322,2.29289322 C2.68341751,1.90236893 3.31658249,1.90236893 3.70710678,2.29289322 Z" id="Combined-Shape" fill="#A7A7A7"></path>
    </g>
</svg>